<?xml version="1.0" encoding="iso-8859-1"?>
<!-- Generator: Adobe Illustrator 19.0.0, SVG Export Plug-In . SVG Version: 6.00 Build 0)  -->
<svg version="1.1" id="Capa_1" xmlns="http://www.w3.org/2000/svg" xmlns:xlink="http://www.w3.org/1999/xlink" x="0px" y="0px"
	 viewBox="0 0 512.023 512.023" style="enable-background:new 0 0 512.023 512.023;" xml:space="preserve">
<g>
	<g>
		<path d="M170.934,85.867c-7.765,0-15.296,2.475-21.696,6.997c-6.379-4.992-13.483-7.509-21.227-7.509
			c-23.168,0-42.731,19.2-42.731,43.392c0,38.293,51.776,78.059,57.685,82.475c1.899,1.429,4.139,2.133,6.379,2.133
			c2.283,0,4.544-0.725,6.464-2.176c5.888-4.48,57.536-44.928,57.429-82.901c0.043-0.448,0.107-1.28,0.107-1.728
			C213.345,104.107,194.316,85.867,170.934,85.867z M192.012,128.021c0,20.416-26.731,47.403-42.731,60.992
			c-16-13.333-42.688-39.787-42.709-59.392c0.064-0.576,0.064-1.771,0.043-2.347c0-12.139,11.264-20.587,21.397-20.587
			c2.837,0,7.211,0.789,12.608,7.616c4.053,5.099,12.672,5.099,16.725,0c10.773-13.589,34.667-5.76,34.667,12.267l0.021-0.32
			C192.012,126.869,192.012,127.701,192.012,128.021z"/>
	</g>
</g>
<g>
	<g>
		<path d="M437.345,0H266.678c-4.267,0-8.384,0.533-12.437,1.216c-5.824,0.981-9.728,6.485-8.768,12.288
			c0.981,5.803,6.485,9.813,12.288,8.768c2.923-0.469,5.867-0.917,8.917-0.917h170.667c29.397,0,53.333,23.936,53.333,53.333v10.667
			h-160c-5.888,0-10.667,4.779-10.667,10.667s4.779,10.667,10.667,10.667h160v277.333H213.345v-53.333
			c0-5.888-4.779-10.667-10.667-10.667s-10.667,4.779-10.667,10.667v106.667c0,41.173,33.493,74.667,74.667,74.667h170.667
			c41.173,0,74.667-33.493,74.667-74.688V74.667C512.011,33.493,478.518,0,437.345,0z M490.678,437.355
			c0,29.397-23.936,53.333-53.333,53.333H266.678c-29.397,0-53.333-23.936-53.333-53.333v-32h277.333V437.355z"/>
	</g>
</g>
<g>
	<g>
		<path d="M437.771,42.688h-0.213c-5.888,0-10.56,4.779-10.56,10.667s4.885,10.667,10.773,10.667
			c5.889-0.001,10.667-4.779,10.667-10.667S443.659,42.688,437.771,42.688z"/>
	</g>
</g>
<g>
	<g>
		<path d="M245.345,42.688h-192c-29.397,0-53.333,23.936-53.333,53.333v106.667c0,29.397,23.936,53.333,53.333,53.333h103.104
			l82.496,61.867c1.899,1.429,4.16,2.133,6.4,2.133c2.197,0,4.373-0.661,6.229-2.005c3.797-2.731,5.355-7.595,3.883-12.032
			l-16.64-49.963h6.528c29.397,0,53.333-23.936,53.333-53.333V96.021C298.678,66.624,274.742,42.688,245.345,42.688z
			 M277.345,202.688c0,17.643-14.357,32-32,32h-21.333c-3.435,0-6.656,1.664-8.661,4.437c-1.984,2.795-2.539,6.379-1.451,9.621
			l10.539,31.595l-58.027-43.52c-1.856-1.387-4.096-2.133-6.4-2.133H53.345c-17.643,0-32-14.357-32-32V96.021
			c0-17.643,14.357-32,32-32h192c17.643,0,32,14.357,32,32V202.688z"/>
	</g>
</g>
<g>
	<g>
		<path d="M373.345,42.687h-42.667c-5.888,0-10.667,4.779-10.667,10.667s4.779,10.667,10.667,10.667h42.667
			c5.888,0,10.667-4.779,10.667-10.667S379.233,42.687,373.345,42.687z"/>
	</g>
</g>
<g>
	<g>
		<path d="M352.012,426.689c-11.776,0-21.333,9.557-21.333,21.333s9.557,21.333,21.333,21.333s21.333-9.557,21.333-21.333
			S363.788,426.689,352.012,426.689z"/>
	</g>
</g>
<g>
</g>
<g>
</g>
<g>
</g>
<g>
</g>
<g>
</g>
<g>
</g>
<g>
</g>
<g>
</g>
<g>
</g>
<g>
</g>
<g>
</g>
<g>
</g>
<g>
</g>
<g>
</g>
<g>
</g>
</svg>
